<svg width="90" height="90" viewBox="0 0 90 90" fill="none" xmlns="http://www.w3.org/2000/svg">
<path d="M45 0C20.16 0 0 20.16 0 45C0 69.84 20.16 90 45 90C69.84 90 90 69.84 90 45C90 20.16 69.84 0 45 0ZM64.44 53.55H45.36C45.3 53.55 45.24 53.52 45.18 53.52C45.12 53.52 45.06 53.55 45 53.55C43.29 53.55 41.88 52.17 41.88 50.43V18.66C41.88 16.95 43.26 15.54 45 15.54C46.74 15.54 48.12 16.92 48.12 18.66V47.31H64.47C66.18 47.31 67.59 48.69 67.59 50.43C67.56 52.17 66.18 53.55 64.44 53.55Z" fill="#4F7670"/>
</svg>
