<svg width="90" height="90" viewBox="0 0 90 90" fill="none" xmlns="http://www.w3.org/2000/svg">
<path d="M45 0C20.16 0 0 20.16 0 45C0 69.84 20.16 90 45 90C69.84 90 90 69.84 90 45C90 20.16 69.84 0 45 0ZM63.27 65.13V68.25C63.27 69.96 61.89 71.37 60.15 71.37H57.03H39.84H29.04C25.59 71.37 22.83 68.58 22.83 65.16V25.98C22.83 22.53 25.62 19.77 29.04 19.77H39.87H57.06H60.18C61.89 19.77 63.3 21.15 63.3 22.89V26.01L63.27 65.13ZM69.51 25.98V65.13V68.25C69.51 69.96 68.13 71.37 66.39 71.37H65.55C66.09 70.44 66.39 69.39 66.39 68.25V65.13V25.98V22.86C66.39 21.72 66.09 20.67 65.55 19.74H66.39C68.1 19.74 69.51 21.12 69.51 22.86V25.98Z" fill="#4F7670"/>
</svg>
