<svg width="129" height="57" viewBox="0 0 129 57" fill="none" xmlns="http://www.w3.org/2000/svg">
<path d="M14.744 48.184C14.872 48.12 14.936 47.992 14.936 47.864C14.936 47.16 13.784 45.304 13.784 42.04C13.784 39.672 14.168 34.424 14.168 34.232C14.168 33.144 14.04 32.888 13.912 32.888H13.848C13.4 32.952 13.016 33.016 12.696 33.016C11.672 33.016 11.096 32.632 11.096 32.184C11.096 31.16 12.504 28.856 18.776 28.856C22.36 28.856 23.64 29.432 24.408 29.752C24.472 29.752 24.536 29.816 24.6 29.816H24.664C25.496 29.816 27.544 25.4 27.544 21.624C27.544 21.24 27.48 20.728 27.352 20.6C27.288 20.536 26.776 20.472 26.008 20.472C23.768 20.472 19.224 20.728 16.536 20.728C15.32 20.728 14.488 20.664 14.36 20.536C14.04 20.216 13.912 18.936 13.912 17.656C13.912 16.248 14.04 14.904 14.04 14.904C14.04 14.584 14.552 14.264 14.552 13.816C14.552 12.728 13.208 12.408 13.208 11.96C13.208 11.256 17.048 9.336 19.672 9.336C22.744 9.336 23 12.024 23 12.792V12.984C23 13.688 25.432 13.752 25.432 13.752C26.392 13.752 27.48 13.432 27.672 13.24C28.504 12.408 29.784 7.48 30.04 6.456V6.328C30.168 5.624 30.296 4.408 30.296 3.576C30.296 3.128 30.232 2.808 30.168 2.68C29.976 2.552 26.712 1.912 26.712 1.912C25.88 1.912 25.24 2.424 24.216 2.424C20.184 2.424 17.496 3.96 15.384 3.96C14.616 3.96 14.68 2.936 14.424 2.744C13.976 2.296 9.112 1.976 8.728 1.976C8.408 1.976 8.088 2.168 8.088 2.168C8.088 3 0.28 3.064 0.28 3.96C0.28 5.048 0.984 9.336 1.816 9.848C1.944 9.976 2.392 10.232 2.392 10.552C2.392 11.256 1.624 11.768 1.624 11.96C1.624 12.792 1.816 15.736 1.816 19C1.816 20.792 1.56 22.776 1.496 23.416C1.432 23.672 3.416 23.928 3.416 25.144C3.416 26.296 1.368 27.384 1.368 27.704C1.368 28.024 1.816 29.56 1.816 31.8C1.816 32.184 1.752 32.568 1.752 32.952V33.208C1.688 34.488 1.624 35.64 1.624 36.6C1.624 38.2 1.688 39.288 1.688 39.8V40.056C1.688 40.376 0.856 41.656 0.856 42.936C0.856 43.64 2.136 43.832 2.136 44.472C2.136 47.096 0.792 48.888 0.792 49.976C0.792 50.36 3.8 51.896 6.68 51.896C9.304 51.896 13.08 48.888 14.744 48.184ZM46.202 25.336C46.202 25.4 46.266 25.464 46.266 25.528C46.266 25.784 45.946 26.04 44.73 26.04C43.322 26.04 42.362 26.872 41.146 26.872C40.826 26.872 40.826 25.464 40.826 25.464C40.826 23.672 42.49 20.92 42.49 19.96C42.49 19.448 42.234 18.168 42.234 17.016C42.234 16.696 42.362 15.544 44.794 15.544C45.37 15.544 45.37 16.12 45.37 16.888V17.144C45.37 18.296 45.434 22.904 46.202 25.336ZM53.946 53.944C56.442 53.944 63.29 51.896 63.29 50.36C63.29 50.232 61.626 47.928 61.37 46.52C61.242 45.816 61.178 45.368 61.178 45.112C61.178 44.856 61.242 44.728 61.242 44.728C61.242 43.448 57.338 44.408 57.338 42.36C57.338 41.08 59.322 40.504 59.322 40.056V39.992C57.914 35.832 55.93 16.312 55.93 14.584C55.93 14.328 54.65 14.456 54.65 13.88C54.65 9.656 55.994 4.728 55.994 4.28C55.994 3.576 52.154 1.976 47.354 1.976C46.202 1.976 44.602 2.04 43.77 2.232C43.194 2.36 33.274 7.352 33.274 8.248C33.274 8.76 34.106 11.576 34.106 11.96C34.106 14.904 31.098 28.984 31.098 31.864C31.098 32.248 28.986 36.728 28.73 37.752V37.816C28.73 38.328 30.138 39.48 30.138 40.312C30.138 40.76 28.282 42.68 27.066 42.68C27.066 42.68 25.274 47.992 24.25 49.272V49.4C24.25 49.528 24.25 49.784 24.442 49.976C24.442 49.976 27.77 52.152 29.05 52.152C32.186 52.152 38.074 50.488 38.074 49.848C38.074 46.392 39.226 37.368 39.674 36.472C39.994 35.768 43.322 34.552 44.794 34.552C47.098 34.552 48.378 35.512 48.378 36.536C48.378 37.624 46.074 37.24 46.074 37.816C46.074 37.816 47.482 45.496 47.482 46.584C47.482 48.568 47.034 50.488 47.034 50.744C47.034 51.384 50.938 53.944 53.946 53.944ZM83.0855 37.368C83.0855 37.56 84.4295 40.568 84.8775 41.144L84.9415 41.208C84.9415 41.656 82.6375 42.104 82.6375 42.104C81.3575 42.104 79.4375 40.248 79.4375 40.248C79.4375 40.248 77.9655 37.304 77.9655 34.872C77.9655 34.552 79.5015 33.016 79.5015 32.504C79.5015 31.992 78.3495 30.136 78.3495 30.136C78.2215 30.008 78.1575 29.56 78.1575 29.048C78.1575 27 78.9895 22.84 78.9895 21.048C78.9895 20.664 78.9895 20.408 78.8615 20.28C78.7335 20.152 78.7335 20.024 78.7335 19.832C78.7335 18.808 80.1415 16.696 80.1415 15.736C80.1415 15.16 78.8615 14.328 78.8615 13.048C78.8615 12.344 81.4855 8.76 82.1255 8.76C83.1495 8.76 86.6055 11.512 86.6055 12.792C86.6055 12.92 86.5415 13.048 86.4135 13.176C86.0935 13.496 85.3255 19.128 85.3255 20.472C85.3255 20.472 86.3495 20.856 86.3495 21.752C86.3495 24.056 85.3895 28.152 85.3895 30.84C85.3895 30.84 87.5655 31.992 87.5655 33.528C87.5655 33.528 83.0855 36.728 83.0855 37.368ZM101.198 49.784C101.198 49.656 96.3975 46.52 95.6295 43.064C95.6295 42.808 99.4695 39.672 99.4695 37.624C99.4695 37.432 97.6135 36.92 97.6135 35.32C97.6135 34.168 99.4695 33.464 99.4695 33.464C99.8535 33.272 100.622 29.432 100.622 28.024C100.622 25.72 99.0855 21.624 99.0855 21.624C99.4055 19.96 99.5335 18.552 99.5335 17.464C99.5335 15.928 99.3415 15.032 99.3415 15.032C98.5735 14.264 96.5895 14.776 96.5895 13.944C96.5895 12.216 98.1895 11.128 98.1895 11.128C98.1895 9.208 94.4135 4.216 94.4135 4.216C93.5815 3.32 88.2695 0.823997 87.1175 0.823997C77.1975 0.823997 71.5655 4.728 71.5655 4.728C69.0055 7.224 67.0855 12.344 67.0855 12.344C67.0855 13.176 68.7495 14.136 68.7495 14.712C68.7495 16.184 66.2535 16.312 66.2535 16.312C66.2535 16.312 64.0775 24.184 64.0775 31.736C64.0775 32.632 66.2535 35.896 66.2535 38.52C66.2535 39.48 65.2935 40.568 65.2935 40.568C65.2935 40.568 66.1255 43.96 66.8295 44.792C66.8295 44.792 74.3175 52.344 81.5495 52.344C81.5495 52.344 85.3255 49.08 87.3735 49.08C87.3735 49.08 88.8455 49.72 88.8455 50.808C88.8455 51.192 87.3735 51.832 87.3735 52.024C87.3735 52.024 87.5655 54.584 88.5895 55.608C88.5895 55.608 90.8295 56.312 92.6215 56.312C93.1335 56.312 93.5815 56.248 93.9655 56.12C93.9655 56.12 101.198 52.088 101.198 49.784ZM125.237 47.608C125.237 47.352 124.149 46.712 124.149 45.944C124.149 45.752 124.213 45.496 124.405 45.304C125.301 44.344 126.773 44.344 126.773 44.344H126.837C127.349 44.344 128.821 38.392 128.821 36.344C128.821 34.616 123.573 29.368 123.573 29.368C122.997 28.792 118.389 27.576 117.557 27.576C116.661 27.576 114.485 29.176 114.485 29.176C113.845 29.176 113.525 27.576 113.525 27.576C113.525 25.528 118.517 23.096 119.733 23.096C122.805 23.096 124.277 24.696 124.533 24.696C124.789 24.696 126.325 22.712 126.325 22.264C126.325 20.152 123.573 15.8 123.253 15.8C122.933 15.8 119.477 15.544 119.477 15.544C116.725 15.544 113.013 16.568 113.013 16.568C112.693 16.888 111.925 17.912 111.925 17.912C111.733 18.168 106.229 20.024 105.333 20.92C104.309 22.008 102.965 28.472 102.965 30.328C102.965 30.52 103.029 33.528 103.989 34.424C104.629 35.128 108.149 34.36 109.045 35.256C109.045 35.256 109.237 35.768 109.237 35.96C109.237 36.152 111.093 36.344 111.285 36.344C111.669 36.344 112.245 35.192 114.485 35.192C114.677 35.192 114.741 35.384 114.741 35.704C114.741 36.088 114.677 36.536 114.677 36.856C114.677 36.984 114.677 37.112 114.741 37.112C115.509 37.112 118.069 37.944 118.069 38.904C118.069 38.904 117.941 40.696 116.725 41.912C116.725 41.912 115.829 42.808 113.781 42.808C113.269 42.808 112.693 43.384 111.669 43.384C108.917 43.384 107.317 40.504 106.997 40.504C106.677 40.504 105.077 41.336 105.077 41.592C105.077 44.024 102.453 46.328 102.453 46.52C102.453 47.288 103.285 49.336 104.245 50.232C104.693 50.744 107.765 52.792 111.989 52.792C112.117 52.792 113.397 51.704 113.973 51.704C115.573 51.704 115.253 52.728 115.957 52.728C118.965 52.728 125.045 48.952 125.237 47.608Z" fill="#6D7172"/>
</svg>
